<svg width="75" height="78" viewBox="0 0 75 78" fill="none" xmlns="http://www.w3.org/2000/svg">
<g filter="url(#filter0_ii)">
<path d="M0 11.6567C0 6.13389 4.47715 1.65674 10 1.65674H75V76.6567H10C4.47715 76.6567 0 72.1796 0 66.6567V11.6567Z" fill="#FC9B08"/>
</g>
<path d="M3.756 60.808C6.972 60.952 6.6 60.712 6.672 60.556C6.672 60.532 6.672 60.436 6.672 60.412C6.672 59.956 6.372 59.728 5.964 59.68C5.892 59.68 5.544 59.68 5.484 59.68C5.436 59.68 5.388 59.68 5.34 59.68C4.704 59.68 4.644 59.656 4.008 59.812C3.948 59.824 3.804 59.872 3.804 59.968L3.756 60.808ZM6.492 59.08C6.528 58.528 6.6 57.712 6.732 57.136C6.816 56.788 7.02 56.5 7.272 56.26C7.428 56.14 8.124 55.588 8.268 55.48C8.724 55.096 9.18 54.568 9.18 53.932C9.18 53.104 8.448 52.6 7.776 52.42C6.204 52.228 4.008 52.156 3.36 54.64C3.36 54.748 3.372 54.772 3.432 54.808C3.456 54.82 3.66 54.94 3.684 54.952C3.828 55.048 4.452 55.504 4.572 55.612C4.668 55.684 4.716 55.684 4.812 55.684C4.908 55.684 4.992 55.684 5.04 55.576C5.256 55.216 5.508 54.868 5.772 54.544C5.868 54.4 5.988 54.28 6.168 54.28C6.324 54.28 6.396 54.46 6.396 54.604C6.396 54.976 6.048 55.36 5.796 55.576L4.656 56.548C4.008 56.944 3.504 58.516 3.756 59.188L6.492 59.08Z" fill="black" fill-opacity="0.2"/>
<path d="M9.756 29.808C12.972 29.952 12.6 29.712 12.672 29.556C12.672 29.532 12.672 29.436 12.672 29.412C12.672 28.956 12.372 28.728 11.964 28.68C11.892 28.68 11.544 28.68 11.484 28.68C11.436 28.68 11.388 28.68 11.34 28.68C10.704 28.68 10.644 28.656 10.008 28.812C9.948 28.824 9.804 28.872 9.804 28.968L9.756 29.808ZM12.492 28.08C12.528 27.528 12.6 26.712 12.732 26.136C12.816 25.788 13.02 25.5 13.272 25.26C13.428 25.14 14.124 24.588 14.268 24.48C14.724 24.096 15.18 23.568 15.18 22.932C15.18 22.104 14.448 21.6 13.776 21.42C12.204 21.228 10.008 21.156 9.36 23.64C9.36 23.748 9.372 23.772 9.432 23.808C9.456 23.82 9.66 23.94 9.684 23.952C9.828 24.048 10.452 24.504 10.572 24.612C10.668 24.684 10.716 24.684 10.812 24.684C10.908 24.684 10.992 24.684 11.04 24.576C11.256 24.216 11.508 23.868 11.772 23.544C11.868 23.4 11.988 23.28 12.168 23.28C12.324 23.28 12.396 23.46 12.396 23.604C12.396 23.976 12.048 24.36 11.796 24.576L10.656 25.548C10.008 25.944 9.504 27.516 9.756 28.188L12.492 28.08Z" fill="black" fill-opacity="0.2"/>
<path d="M51.756 68.808C54.972 68.952 54.6 68.712 54.672 68.556C54.672 68.532 54.672 68.436 54.672 68.412C54.672 67.956 54.372 67.728 53.964 67.68C53.892 67.68 53.544 67.68 53.484 67.68C53.436 67.68 53.388 67.68 53.34 67.68C52.704 67.68 52.644 67.656 52.008 67.812C51.948 67.824 51.804 67.872 51.804 67.968L51.756 68.808ZM54.492 67.08C54.528 66.528 54.6 65.712 54.732 65.136C54.816 64.788 55.02 64.5 55.272 64.26C55.428 64.14 56.124 63.588 56.268 63.48C56.724 63.096 57.18 62.568 57.18 61.932C57.18 61.104 56.448 60.6 55.776 60.42C54.204 60.228 52.008 60.156 51.36 62.64C51.36 62.748 51.372 62.772 51.432 62.808C51.456 62.82 51.66 62.94 51.684 62.952C51.828 63.048 52.452 63.504 52.572 63.612C52.668 63.684 52.716 63.684 52.812 63.684C52.908 63.684 52.992 63.684 53.04 63.576C53.256 63.216 53.508 62.868 53.772 62.544C53.868 62.4 53.988 62.28 54.168 62.28C54.324 62.28 54.396 62.46 54.396 62.604C54.396 62.976 54.048 63.36 53.796 63.576L52.656 64.548C52.008 64.944 51.504 66.516 51.756 67.188L54.492 67.08Z" fill="black" fill-opacity="0.2"/>
<path d="M27.756 10.808C30.972 10.952 30.6 10.712 30.672 10.556C30.672 10.532 30.672 10.436 30.672 10.412C30.672 9.956 30.372 9.728 29.964 9.68C29.892 9.68 29.544 9.68 29.484 9.68C29.436 9.68 29.388 9.68 29.34 9.68C28.704 9.68 28.644 9.656 28.008 9.812C27.948 9.824 27.804 9.872 27.804 9.968L27.756 10.808ZM30.492 9.08C30.528 8.528 30.6 7.712 30.732 7.136C30.816 6.788 31.02 6.5 31.272 6.26C31.428 6.14 32.124 5.588 32.268 5.48C32.724 5.096 33.18 4.568 33.18 3.932C33.18 3.104 32.448 2.6 31.776 2.42C30.204 2.228 28.008 2.156 27.36 4.64C27.36 4.748 27.372 4.772 27.432 4.808C27.456 4.82 27.66 4.94 27.684 4.952C27.828 5.048 28.452 5.504 28.572 5.612C28.668 5.684 28.716 5.684 28.812 5.684C28.908 5.684 28.992 5.684 29.04 5.576C29.256 5.216 29.508 4.868 29.772 4.544C29.868 4.4 29.988 4.28 30.168 4.28C30.324 4.28 30.396 4.46 30.396 4.604C30.396 4.976 30.048 5.36 29.796 5.576L28.656 6.548C28.008 6.944 27.504 8.516 27.756 9.188L30.492 9.08Z" fill="black" fill-opacity="0.2"/>
<path d="M38.756 74.808C41.972 74.952 41.6 74.712 41.672 74.556C41.672 74.532 41.672 74.436 41.672 74.412C41.672 73.956 41.372 73.728 40.964 73.68C40.892 73.68 40.544 73.68 40.484 73.68C40.436 73.68 40.388 73.68 40.34 73.68C39.704 73.68 39.644 73.656 39.008 73.812C38.948 73.824 38.804 73.872 38.804 73.968L38.756 74.808ZM41.492 73.08C41.528 72.528 41.6 71.712 41.732 71.136C41.816 70.788 42.02 70.5 42.272 70.26C42.428 70.14 43.124 69.588 43.268 69.48C43.724 69.096 44.18 68.568 44.18 67.932C44.18 67.104 43.448 66.6 42.776 66.42C41.204 66.228 39.008 66.156 38.36 68.64C38.36 68.748 38.372 68.772 38.432 68.808C38.456 68.82 38.66 68.94 38.684 68.952C38.828 69.048 39.452 69.504 39.572 69.612C39.668 69.684 39.716 69.684 39.812 69.684C39.908 69.684 39.992 69.684 40.04 69.576C40.256 69.216 40.508 68.868 40.772 68.544C40.868 68.4 40.988 68.28 41.168 68.28C41.324 68.28 41.396 68.46 41.396 68.604C41.396 68.976 41.048 69.36 40.796 69.576L39.656 70.548C39.008 70.944 38.504 72.516 38.756 73.188L41.492 73.08Z" fill="black" fill-opacity="0.2"/>
<path d="M59.756 24.808C62.972 24.952 62.6 24.712 62.672 24.556C62.672 24.532 62.672 24.436 62.672 24.412C62.672 23.956 62.372 23.728 61.964 23.68C61.892 23.68 61.544 23.68 61.484 23.68C61.436 23.68 61.388 23.68 61.34 23.68C60.704 23.68 60.644 23.656 60.008 23.812C59.948 23.824 59.804 23.872 59.804 23.968L59.756 24.808ZM62.492 23.08C62.528 22.528 62.6 21.712 62.732 21.136C62.816 20.788 63.02 20.5 63.272 20.26C63.428 20.14 64.124 19.588 64.268 19.48C64.724 19.096 65.18 18.568 65.18 17.932C65.18 17.104 64.448 16.6 63.776 16.42C62.204 16.228 60.008 16.156 59.36 18.64C59.36 18.748 59.372 18.772 59.432 18.808C59.456 18.82 59.66 18.94 59.684 18.952C59.828 19.048 60.452 19.504 60.572 19.612C60.668 19.684 60.716 19.684 60.812 19.684C60.908 19.684 60.992 19.684 61.04 19.576C61.256 19.216 61.508 18.868 61.772 18.544C61.868 18.4 61.988 18.28 62.168 18.28C62.324 18.28 62.396 18.46 62.396 18.604C62.396 18.976 62.048 19.36 61.796 19.576L60.656 20.548C60.008 20.944 59.504 22.516 59.756 23.188L62.492 23.08Z" fill="black" fill-opacity="0.2"/>
<path d="M9.756 72.808C12.972 72.952 12.6 72.712 12.672 72.556C12.672 72.532 12.672 72.436 12.672 72.412C12.672 71.956 12.372 71.728 11.964 71.68C11.892 71.68 11.544 71.68 11.484 71.68C11.436 71.68 11.388 71.68 11.34 71.68C10.704 71.68 10.644 71.656 10.008 71.812C9.948 71.824 9.804 71.872 9.804 71.968L9.756 72.808ZM12.492 71.08C12.528 70.528 12.6 69.712 12.732 69.136C12.816 68.788 13.02 68.5 13.272 68.26C13.428 68.14 14.124 67.588 14.268 67.48C14.724 67.096 15.18 66.568 15.18 65.932C15.18 65.104 14.448 64.6 13.776 64.42C12.204 64.228 10.008 64.156 9.36 66.64C9.36 66.748 9.372 66.772 9.432 66.808C9.456 66.82 9.66 66.94 9.684 66.952C9.828 67.048 10.452 67.504 10.572 67.612C10.668 67.684 10.716 67.684 10.812 67.684C10.908 67.684 10.992 67.684 11.04 67.576C11.256 67.216 11.508 66.868 11.772 66.544C11.868 66.4 11.988 66.28 12.168 66.28C12.324 66.28 12.396 66.46 12.396 66.604C12.396 66.976 12.048 67.36 11.796 67.576L10.656 68.548C10.008 68.944 9.504 70.516 9.756 71.188L12.492 71.08Z" fill="black" fill-opacity="0.2"/>
<path d="M4.756 14.808C7.972 14.952 7.6 14.712 7.672 14.556C7.672 14.532 7.672 14.436 7.672 14.412C7.672 13.956 7.372 13.728 6.964 13.68C6.892 13.68 6.544 13.68 6.484 13.68C6.436 13.68 6.388 13.68 6.34 13.68C5.704 13.68 5.644 13.656 5.008 13.812C4.948 13.824 4.804 13.872 4.804 13.968L4.756 14.808ZM7.492 13.08C7.528 12.528 7.6 11.712 7.732 11.136C7.816 10.788 8.02 10.5 8.272 10.26C8.428 10.14 9.124 9.588 9.268 9.48C9.724 9.096 10.18 8.568 10.18 7.932C10.18 7.104 9.448 6.6 8.776 6.42C7.204 6.228 5.008 6.156 4.36 8.64C4.36 8.748 4.372 8.772 4.432 8.808C4.456 8.82 4.66 8.94 4.684 8.952C4.828 9.048 5.452 9.504 5.572 9.612C5.668 9.684 5.716 9.684 5.812 9.684C5.908 9.684 5.992 9.684 6.04 9.576C6.256 9.216 6.508 8.868 6.772 8.544C6.868 8.4 6.988 8.28 7.168 8.28C7.324 8.28 7.396 8.46 7.396 8.604C7.396 8.976 7.048 9.36 6.796 9.576L5.656 10.548C5.008 10.944 4.504 12.516 4.756 13.188L7.492 13.08Z" fill="black" fill-opacity="0.2"/>
<path d="M64.756 62.808C67.972 62.952 67.6 62.712 67.672 62.556C67.672 62.532 67.672 62.436 67.672 62.412C67.672 61.956 67.372 61.728 66.964 61.68C66.892 61.68 66.544 61.68 66.484 61.68C66.436 61.68 66.388 61.68 66.34 61.68C65.704 61.68 65.644 61.656 65.008 61.812C64.948 61.824 64.804 61.872 64.804 61.968L64.756 62.808ZM67.492 61.08C67.528 60.528 67.6 59.712 67.732 59.136C67.816 58.788 68.02 58.5 68.272 58.26C68.428 58.14 69.124 57.588 69.268 57.48C69.724 57.096 70.18 56.568 70.18 55.932C70.18 55.104 69.448 54.6 68.776 54.42C67.204 54.228 65.008 54.156 64.36 56.64C64.36 56.748 64.372 56.772 64.432 56.808C64.456 56.82 64.66 56.94 64.684 56.952C64.828 57.048 65.452 57.504 65.572 57.612C65.668 57.684 65.716 57.684 65.812 57.684C65.908 57.684 65.992 57.684 66.04 57.576C66.256 57.216 66.508 56.868 66.772 56.544C66.868 56.4 66.988 56.28 67.168 56.28C67.324 56.28 67.396 56.46 67.396 56.604C67.396 56.976 67.048 57.36 66.796 57.576L65.656 58.548C65.008 58.944 64.504 60.516 64.756 61.188L67.492 61.08Z" fill="black" fill-opacity="0.2"/>
<path d="M26.024 54.232C38.888 54.808 37.4 53.848 37.688 53.224C37.688 53.128 37.688 52.744 37.688 52.648C37.688 50.824 36.488 49.912 34.856 49.72C34.568 49.72 33.176 49.72 32.936 49.72C32.744 49.72 32.552 49.72 32.36 49.72C29.816 49.72 29.576 49.624 27.032 50.248C26.792 50.296 26.216 50.488 26.216 50.872L26.024 54.232ZM36.968 47.32C37.112 45.112 37.4 41.848 37.928 39.544C38.264 38.152 39.08 37 40.088 36.04C40.712 35.56 43.496 33.352 44.072 32.92C45.896 31.384 47.72 29.272 47.72 26.728C47.72 23.416 44.792 21.4 42.104 20.68C35.816 19.912 27.032 19.624 24.44 29.56C24.44 29.992 24.488 30.088 24.728 30.232C24.824 30.28 25.64 30.76 25.736 30.808C26.312 31.192 28.808 33.016 29.288 33.448C29.672 33.736 29.864 33.736 30.248 33.736C30.632 33.736 30.968 33.736 31.16 33.304C32.024 31.864 33.032 30.472 34.088 29.176C34.472 28.6 34.952 28.12 35.672 28.12C36.296 28.12 36.584 28.84 36.584 29.416C36.584 30.904 35.192 32.44 34.184 33.304L29.624 37.192C27.032 38.776 25.016 45.064 26.024 47.752L36.968 47.32Z" fill="black"/>
<path d="M65.756 13.808C68.972 13.952 68.6 13.712 68.672 13.556C68.672 13.532 68.672 13.436 68.672 13.412C68.672 12.956 68.372 12.728 67.964 12.68C67.892 12.68 67.544 12.68 67.484 12.68C67.436 12.68 67.388 12.68 67.34 12.68C66.704 12.68 66.644 12.656 66.008 12.812C65.948 12.824 65.804 12.872 65.804 12.968L65.756 13.808ZM68.492 12.08C68.528 11.528 68.6 10.712 68.732 10.136C68.816 9.788 69.02 9.5 69.272 9.26C69.428 9.14 70.124 8.588 70.268 8.48C70.724 8.096 71.18 7.568 71.18 6.932C71.18 6.104 70.448 5.6 69.776 5.42C68.204 5.228 66.008 5.156 65.36 7.64C65.36 7.748 65.372 7.772 65.432 7.808C65.456 7.82 65.66 7.94 65.684 7.952C65.828 8.048 66.452 8.504 66.572 8.612C66.668 8.684 66.716 8.684 66.812 8.684C66.908 8.684 66.992 8.684 67.04 8.576C67.256 8.216 67.508 7.868 67.772 7.544C67.868 7.4 67.988 7.28 68.168 7.28C68.324 7.28 68.396 7.46 68.396 7.604C68.396 7.976 68.048 8.36 67.796 8.576L66.656 9.548C66.008 9.944 65.504 11.516 65.756 12.188L68.492 12.08Z" fill="black" fill-opacity="0.2"/>
<defs>
<filter id="filter0_ii" x="0" y="-6.34326" width="75" height="87" filterUnits="userSpaceOnUse" color-interpolation-filters="sRGB">
<feFlood flood-opacity="0" result="BackgroundImageFix"/>
<feBlend mode="normal" in="SourceGraphic" in2="BackgroundImageFix" result="shape"/>
<feColorMatrix in="SourceAlpha" type="matrix" values="0 0 0 0 0 0 0 0 0 0 0 0 0 0 0 0 0 0 127 0" result="hardAlpha"/>
<feOffset dy="4"/>
<feGaussianBlur stdDeviation="4"/>
<feComposite in2="hardAlpha" operator="arithmetic" k2="-1" k3="1"/>
<feColorMatrix type="matrix" values="0 0 0 0 1 0 0 0 0 0.508197 0 0 0 0 0 0 0 0 1 0"/>
<feBlend mode="normal" in2="shape" result="effect1_innerShadow"/>
<feColorMatrix in="SourceAlpha" type="matrix" values="0 0 0 0 0 0 0 0 0 0 0 0 0 0 0 0 0 0 127 0" result="hardAlpha"/>
<feOffset dy="-8"/>
<feGaussianBlur stdDeviation="8"/>
<feComposite in2="hardAlpha" operator="arithmetic" k2="-1" k3="1"/>
<feColorMatrix type="matrix" values="0 0 0 0 1 0 0 0 0 1 0 0 0 0 1 0 0 0 0.2 0"/>
<feBlend mode="normal" in2="effect1_innerShadow" result="effect2_innerShadow"/>
</filter>
</defs>
</svg>
