<svg width="75" height="75" viewBox="0 0 75 75" fill="none" xmlns="http://www.w3.org/2000/svg">
<g filter="url(#filter0_ii)">
<path d="M0 10C0 4.47715 4.47715 0 10 0H75V75H10C4.47715 75 0 70.5229 0 65V10Z" fill="#FC9B08"/>
</g>
<rect x="17" y="44" width="12" height="42" rx="6" transform="rotate(-90 17 44)" fill="#242424"/>
<rect x="3" y="56.2856" width="2.28571" height="8" rx="1.14286" transform="rotate(-90 3 56.2856)" fill="#242424" fill-opacity="0.2"/>
<circle cx="7" cy="52" r="1" fill="#242424" fill-opacity="0.2"/>
<circle cx="7" cy="58" r="1" fill="#242424" fill-opacity="0.2"/>
<rect x="9" y="25.2856" width="2.28571" height="8" rx="1.14286" transform="rotate(-90 9 25.2856)" fill="#242424" fill-opacity="0.2"/>
<circle cx="13" cy="21" r="1" fill="#242424" fill-opacity="0.2"/>
<circle cx="13" cy="27" r="1" fill="#242424" fill-opacity="0.2"/>
<rect x="51" y="64.2856" width="2.28571" height="8" rx="1.14286" transform="rotate(-90 51 64.2856)" fill="#242424" fill-opacity="0.2"/>
<circle cx="55" cy="60" r="1" fill="#242424" fill-opacity="0.2"/>
<circle cx="55" cy="66" r="1" fill="#242424" fill-opacity="0.2"/>
<rect x="27" y="6.28564" width="2.28571" height="8" rx="1.14286" transform="rotate(-90 27 6.28564)" fill="#242424" fill-opacity="0.2"/>
<circle cx="31" cy="2" r="1" fill="#242424" fill-opacity="0.2"/>
<circle cx="31" cy="8" r="1" fill="#242424" fill-opacity="0.2"/>
<rect x="38" y="70.2856" width="2.28571" height="8" rx="1.14286" transform="rotate(-90 38 70.2856)" fill="#242424" fill-opacity="0.2"/>
<circle cx="42" cy="66" r="1" fill="#242424" fill-opacity="0.2"/>
<circle cx="42" cy="72" r="1" fill="#242424" fill-opacity="0.2"/>
<rect x="9" y="68.2856" width="2.28571" height="8" rx="1.14286" transform="rotate(-90 9 68.2856)" fill="#242424" fill-opacity="0.2"/>
<circle cx="13" cy="64" r="1" fill="#242424" fill-opacity="0.2"/>
<circle cx="13" cy="70" r="1" fill="#242424" fill-opacity="0.2"/>
<rect x="4" y="10.2856" width="2.28571" height="8" rx="1.14286" transform="rotate(-90 4 10.2856)" fill="#242424" fill-opacity="0.2"/>
<circle cx="8" cy="6" r="1" fill="#242424" fill-opacity="0.2"/>
<circle cx="8" cy="12" r="1" fill="#242424" fill-opacity="0.2"/>
<rect x="63" y="58.2856" width="2.28571" height="8" rx="1.14286" transform="rotate(-90 63 58.2856)" fill="#242424" fill-opacity="0.2"/>
<circle cx="67" cy="54" r="1" fill="#242424" fill-opacity="0.2"/>
<circle cx="67" cy="60" r="1" fill="#242424" fill-opacity="0.2"/>
<circle cx="38" cy="24" r="6" fill="#242424"/>
<circle cx="38" cy="52" r="6" fill="#242424"/>
<rect x="65" y="8.28564" width="2.28571" height="8" rx="1.14286" transform="rotate(-90 65 8.28564)" fill="#242424" fill-opacity="0.2"/>
<circle cx="69" cy="4" r="1" fill="#242424" fill-opacity="0.2"/>
<circle cx="69" cy="10" r="1" fill="#242424" fill-opacity="0.2"/>
<rect x="59" y="20.2856" width="2.28571" height="8" rx="1.14286" transform="rotate(-90 59 20.2856)" fill="#242424" fill-opacity="0.2"/>
<circle cx="63" cy="16" r="1" fill="#242424" fill-opacity="0.2"/>
<circle cx="63" cy="22" r="1" fill="#242424" fill-opacity="0.2"/>
<defs>
<filter id="filter0_ii" x="0" y="-8" width="75" height="87" filterUnits="userSpaceOnUse" color-interpolation-filters="sRGB">
<feFlood flood-opacity="0" result="BackgroundImageFix"/>
<feBlend mode="normal" in="SourceGraphic" in2="BackgroundImageFix" result="shape"/>
<feColorMatrix in="SourceAlpha" type="matrix" values="0 0 0 0 0 0 0 0 0 0 0 0 0 0 0 0 0 0 127 0" result="hardAlpha"/>
<feOffset dy="4"/>
<feGaussianBlur stdDeviation="4"/>
<feComposite in2="hardAlpha" operator="arithmetic" k2="-1" k3="1"/>
<feColorMatrix type="matrix" values="0 0 0 0 1 0 0 0 0 0.508197 0 0 0 0 0 0 0 0 1 0"/>
<feBlend mode="normal" in2="shape" result="effect1_innerShadow"/>
<feColorMatrix in="SourceAlpha" type="matrix" values="0 0 0 0 0 0 0 0 0 0 0 0 0 0 0 0 0 0 127 0" result="hardAlpha"/>
<feOffset dy="-8"/>
<feGaussianBlur stdDeviation="8"/>
<feComposite in2="hardAlpha" operator="arithmetic" k2="-1" k3="1"/>
<feColorMatrix type="matrix" values="0 0 0 0 1 0 0 0 0 1 0 0 0 0 1 0 0 0 0.2 0"/>
<feBlend mode="normal" in2="effect1_innerShadow" result="effect2_innerShadow"/>
</filter>
</defs>
</svg>
