<svg width="75" height="75" viewBox="0 0 75 75" fill="none" xmlns="http://www.w3.org/2000/svg">
<g filter="url(#filter0_ii)">
<path d="M0 9.99976C0 4.47691 4.47715 -0.000244141 10 -0.000244141H75V75H10C4.47715 75 0 70.5229 0 65V9.99976Z" fill="#FC9B08"/>
</g>
<rect width="12" height="42.0001" rx="6.00001" transform="matrix(0.707106 0.707108 -0.707106 0.707108 48.6066 18.908)" fill="#242424"/>
<rect width="12" height="42.0001" rx="6.00001" transform="matrix(0.707106 -0.707108 0.707106 0.707108 18.9081 27.3931)" fill="#242424"/>
<rect width="2.28572" height="8.00001" rx="1.14286" transform="matrix(0.707106 0.707108 -0.707106 0.707108 71.0206 3.36304)" fill="#242424" fill-opacity="0.2"/>
<rect width="2.28572" height="8.00001" rx="1.14286" transform="matrix(0.707106 -0.707108 0.707106 0.707108 65.3638 4.97949)" fill="#242424" fill-opacity="0.2"/>
<rect width="2.28572" height="8.00001" rx="1.14286" transform="matrix(-0.707106 -0.707108 -0.707106 0.707108 10.6367 52.98)" fill="#242424" fill-opacity="0.2"/>
<rect width="2.28572" height="8.00001" rx="1.14286" transform="matrix(0.707106 -0.707108 -0.707106 -0.707108 9.02039 58.6367)" fill="#242424" fill-opacity="0.2"/>
<rect width="2.28572" height="8.00001" rx="1.14286" transform="matrix(-0.707106 -0.707108 -0.707106 0.707108 16.6366 21.9797)" fill="#242424" fill-opacity="0.2"/>
<rect width="2.28572" height="8.00001" rx="1.14286" transform="matrix(0.707106 -0.707108 -0.707106 -0.707108 15.0203 27.6367)" fill="#242424" fill-opacity="0.2"/>
<rect width="2.28572" height="8.00001" rx="1.14286" transform="matrix(-0.707106 -0.707108 -0.707106 0.707108 58.6366 60.98)" fill="#242424" fill-opacity="0.2"/>
<rect width="2.28572" height="8.00001" rx="1.14286" transform="matrix(0.707106 -0.707108 -0.707106 -0.707108 57.0203 66.6367)" fill="#242424" fill-opacity="0.2"/>
<rect width="2.28572" height="8.00001" rx="1.14286" transform="matrix(-0.707106 -0.707108 -0.707106 0.707108 34.6367 6.97949)" fill="#242424" fill-opacity="0.2"/>
<rect width="2.28572" height="8.00001" rx="1.14286" transform="matrix(0.707106 -0.707108 -0.707106 -0.707108 33.0204 12.6365)" fill="#242424" fill-opacity="0.2"/>
<rect width="2.28572" height="8.00001" rx="1.14286" transform="matrix(-0.707106 -0.707108 -0.707106 0.707108 45.6366 66.9797)" fill="#242424" fill-opacity="0.2"/>
<rect width="2.28572" height="8.00001" rx="1.14286" transform="matrix(0.707106 -0.707108 -0.707106 -0.707108 44.0203 72.6365)" fill="#242424" fill-opacity="0.2"/>
<rect width="2.28572" height="8.00001" rx="1.14286" transform="matrix(0.707106 0.707108 -0.707106 0.707108 65.0203 15.3633)" fill="#242424" fill-opacity="0.1"/>
<rect width="2.28572" height="8.00001" rx="1.14286" transform="matrix(0.707106 -0.707108 0.707106 0.707108 59.3634 16.9795)" fill="#242424" fill-opacity="0.1"/>
<rect width="2.28572" height="8.00001" rx="1.14286" transform="matrix(-0.707106 -0.707108 -0.707106 0.707108 16.6367 64.9797)" fill="#242424" fill-opacity="0.1"/>
<rect width="2.28572" height="8.00001" rx="1.14286" transform="matrix(0.707106 -0.707108 -0.707106 -0.707108 15.0204 70.6365)" fill="#242424" fill-opacity="0.1"/>
<rect width="2.28572" height="8.00001" rx="1.14286" transform="matrix(0.707106 0.707108 -0.707106 0.707108 10.0205 5.36304)" fill="#242424" fill-opacity="0.1"/>
<rect width="2.28572" height="8.00001" rx="1.14286" transform="matrix(0.707106 -0.707108 0.707106 0.707108 4.36365 6.97949)" fill="#242424" fill-opacity="0.1"/>
<rect width="2.28572" height="8.00001" rx="1.14286" transform="matrix(-0.707106 -0.707108 -0.707106 0.707108 71.6367 54.9797)" fill="#242424" fill-opacity="0.1"/>
<rect width="2.28572" height="8.00001" rx="1.14286" transform="matrix(0.707106 -0.707108 -0.707106 -0.707108 70.0204 60.6365)" fill="#242424" fill-opacity="0.1"/>
<defs>
<filter id="filter0_ii" x="0" y="-8.00024" width="75" height="87.0003" filterUnits="userSpaceOnUse" color-interpolation-filters="sRGB">
<feFlood flood-opacity="0" result="BackgroundImageFix"/>
<feBlend mode="normal" in="SourceGraphic" in2="BackgroundImageFix" result="shape"/>
<feColorMatrix in="SourceAlpha" type="matrix" values="0 0 0 0 0 0 0 0 0 0 0 0 0 0 0 0 0 0 127 0" result="hardAlpha"/>
<feOffset dy="4"/>
<feGaussianBlur stdDeviation="4"/>
<feComposite in2="hardAlpha" operator="arithmetic" k2="-1" k3="1"/>
<feColorMatrix type="matrix" values="0 0 0 0 1 0 0 0 0 0.508197 0 0 0 0 0 0 0 0 1 0"/>
<feBlend mode="normal" in2="shape" result="effect1_innerShadow"/>
<feColorMatrix in="SourceAlpha" type="matrix" values="0 0 0 0 0 0 0 0 0 0 0 0 0 0 0 0 0 0 127 0" result="hardAlpha"/>
<feOffset dy="-8"/>
<feGaussianBlur stdDeviation="8"/>
<feComposite in2="hardAlpha" operator="arithmetic" k2="-1" k3="1"/>
<feColorMatrix type="matrix" values="0 0 0 0 1 0 0 0 0 1 0 0 0 0 1 0 0 0 0.2 0"/>
<feBlend mode="normal" in2="effect1_innerShadow" result="effect2_innerShadow"/>
</filter>
</defs>
</svg>
